<svg id="Layer_1" data-name="Layer 1" xmlns="http://www.w3.org/2000/svg" viewBox="0 0 100 100"><defs><style>.cls-1{fill:#191919;}.cls-2{fill:#f1f2f2;}</style></defs><rect class="cls-1" width="100" height="100"/><path class="cls-2" d="M63.07,74.63c-1.24,4-3.14,6.76-6.81,8.77a10.82,10.82,0,0,0,1-9.43,21.48,21.48,0,0,0-5.38-8.11c-2.29-2.34-4.84-4.41-7.12-6.76-5.55-5.72-9.43-13.22-10-21.17A27,27,0,0,1,37.93,23c1.35-2.46,3-6.64,5.19-8.47-4,5.66-3.71,15.4-1.16,21.87S49.24,48.26,54.22,53.1c2.93,2.86,6,5.67,7.87,9.33A16.54,16.54,0,0,1,63.07,74.63Z"/><path class="cls-2" d="M56.26,83.4a10.82,10.82,0,0,0,1-9.43,21.48,21.48,0,0,0-5.38-8.11c-2.29-2.34-4.84-4.41-7.12-6.76-5.55-5.72-9.43-13.22-10-21.17-.38-5.13.4-11.26,2.87-15.74C39,19.73,41,16.4,43.12,14.57c-.23.25-13.69,16.76,2,36,5.32,6.52,9.68,10.22,12.08,14.37C62,73.14,60.77,79,56.26,83.4Z"/><path class="cls-2" d="M39.66,10H15.23v1.48c4.87,0,7.58,4.63,7.72,11.38V69.31l-.07,9.19h0c-.46,6.45-3.21,10-7.65,10V90h25.7c1.89,0,3.78-.07,5.66-.19C66.65,88.58,84.77,81,84.77,50.23,84.77,16.93,62.27,10,39.66,10Zm6.56,78.31s-7.54.23-11.56-3.85a8.25,8.25,0,0,1-2.19-4,10.76,10.76,0,0,1-.27-2.43V20.42c0-8.43,7.43-8.93,7.72-8.94h0c12.5,0,31.21,2.3,31.21,38.75C71.14,81.7,57.77,87.31,46.22,88.31Z"/></svg>